HIERARCHY
ROOT Hips
{
	OFFSET 0.00000 0.00000 0.00000
	CHANNELS 6 Xposition Yposition Zposition Zrotation Yrotation Xrotation 
	JOINT LHipJoint
	{
		OFFSET 0 0 0
		CHANNELS 3 Zrotation Yrotation Xrotation
		JOINT LeftHip
		{
			OFFSET 1.80322 -1.53100 0.99595
			CHANNELS 3 Zrotation Yrotation Xrotation
			JOINT LeftKnee
			{
				OFFSET 2.25177 -6.18669 0.00000
				CHANNELS 3 Zrotation Yrotation Xrotation
				JOINT LeftAnkle
				{
					OFFSET 2.26601 -6.22582 0.00000
					CHANNELS 3 Zrotation Yrotation Xrotation
					JOINT LeftToe
					{
						OFFSET 0.23701 -0.65119 2.15848
						CHANNELS 3 Zrotation Yrotation Xrotation
						End Site
						{
							OFFSET 0.00000 -0.00000 1.12949
						}
					}
				}
			}
		}
	}
	JOINT RHipJoint
	{
		OFFSET 0 0 0
		CHANNELS 3 Zrotation Yrotation Xrotation
		JOINT RightHip
		{
			OFFSET -1.93977 -1.53100 0.99595
			CHANNELS 3 Zrotation Yrotation Xrotation
			JOINT RightKnee
			{
				OFFSET -2.28036 -6.26523 0.00000
				CHANNELS 3 Zrotation Yrotation Xrotation
				JOINT RightAnkle
				{
					OFFSET -2.25490 -6.19528 0.00000
					CHANNELS 3 Zrotation Yrotation Xrotation
					JOINT RightToe
					{
						OFFSET -0.28375 -0.77960 2.23137
						CHANNELS 3 Zrotation Yrotation Xrotation
						End Site
						{
							OFFSET -0.00000 -0.00000 1.17899
						}
					}
				}
			}
		}
	}
	JOINT lowerback
	{
		OFFSET 0 0 0
		CHANNELS 3 Zrotation Yrotation Xrotation
		JOINT Chest
		{
			OFFSET -0.00088 2.12090 -0.02806
			CHANNELS 3 Zrotation Yrotation Xrotation
			JOINT Chest2
			{
				OFFSET -0.00286 2.09666 0.12974
				CHANNELS 3 Zrotation Yrotation Xrotation
				JOINT lowerneck
				{
					OFFSET 0 0 0
					CHANNELS 3 Zrotation Yrotation Xrotation
					JOINT Neck
					{
						OFFSET 0.07328 1.83526 0.07290
						CHANNELS 3 Zrotation Yrotation Xrotation
						JOINT Head
						{
							OFFSET -0.06683 1.74974 -0.49542
							CHANNELS 3 Zrotation Yrotation Xrotation
							End Site
							{
								OFFSET -0.03398 1.85163 -0.17573
							}
						}
					}
				}
				JOINT LeftCollar
				{
					OFFSET 0 0 0
					CHANNELS 3 Zrotation Yrotation Xrotation
					JOINT LeftShoulder
					{
						OFFSET 3.02113 1.18018 0.40602
CHANNELS 3 Zrotation Xrotation Yrotation
						JOINT LeftElbow
						{
OFFSET 0 -4.585380 -0.000000
CHANNELS 3 Zrotation Xrotation Yrotation
							JOINT LeftWrist
							{
OFFSET 0 -2.689350 -0.000000
CHANNELS 3 Zrotation Xrotation Yrotation
								JOINT lhand
								{
									OFFSET 0 0 0
CHANNELS 3 Zrotation Xrotation Yrotation
									JOINT LFingers
									{
OFFSET 0 -0.585060 -0.000000
CHANNELS 3 Zrotation Xrotation Yrotation
										End Site
										{
OFFSET 0 -0.471690 -0.000000
										}
									}
								}
								JOINT LThumb
								{
OFFSET 0 0.000000 0.000000
CHANNELS 3 Zrotation Xrotation Yrotation
									End Site
									{
OFFSET 0 -0.478890 0.478890
									}
								}
							}
						}
					}
				}
				JOINT RightCollar
				{
					OFFSET 0 0 0
					CHANNELS 3 Zrotation Yrotation Xrotation
					JOINT RightShoulder
					{
						OFFSET -2.95074 1.18843 0.31430
CHANNELS 3 Zrotation Xrotation Yrotation
						JOINT RightElbow
						{
OFFSET 0 -4.474500 -0.000000
CHANNELS 3 Zrotation Xrotation Yrotation
							JOINT RightWrist
							{
OFFSET 0 -2.938960 -0.000000
CHANNELS 3 Zrotation Xrotation Yrotation
								JOINT rhand
								{
									OFFSET 0 0 0
CHANNELS 3 Zrotation Xrotation Yrotation
									JOINT RFingers
									{
OFFSET 0 -0.405090 -0.000000
CHANNELS 3 Zrotation Xrotation Yrotation
										End Site
										{
OFFSET 0 -0.326600 -0.000000
										}
									}
								}
								JOINT RThumb
								{
OFFSET 0 0.000000 0.000000
CHANNELS 3 Zrotation Xrotation Yrotation
									End Site
									{
OFFSET 0 -0.331580 0.331580
									}
								}
							}
						}
					}
				}
			}
		}
	}
}
MOTION
Frames: 12
Frame Time: 0.008333333333333333
-2.192504 11.908233 2.460145 8.913219 21.718365 32.543397 0.000000 0.000000 0.000000 -4.480744 -8.028540 -90.459196 16.868549 19.762962 80.809292 -0.020487 -16.694629 -11.526948 0.000092 0.044957 0.123593 0.000000 0.000000 0.000000 5.258771 -18.228548 -86.665059 -25.855439 -19.156852 107.354796 -4.244370 3.131636 -38.410522 -1.854360 8.555761 -24.415291 3.992434 2.868460 25.159593 0.074937 4.888651 1.359155 -3.897083 2.020808 -12.204553 -0.236508 -6.709379 -18.599301 0.357590 -8.923674 4.489880 -0.640805 -4.384322 4.309319 0.000000 0.000000 0.000000 14.327712 25.497034 -58.793732 71.791663 -58.708487 44.299593 42.768489 17.793025 -2.788809 0.000000 0.000000 0.000000 -7.125000 0.000000 0.000000 13.168736 33.553774 3.781178 0.000000 0.000000 0.000000 -44.638614 -51.515656 -8.894000 -11.826521 -19.543788 -2.044053 -28.225683 14.993520 11.056349 0.000000 0.000000 0.000000 7.125000 0.000000 0.000000 -1.010523 42.481803 -0.062846
-2.402103 11.139287 2.412537 9.938266 23.967131 30.672982 0.000000 0.000000 0.000000 -3.693508 -7.211996 -94.471616 19.493914 19.993488 88.520180 -0.303830 -19.811717 -11.243337 0.009448 0.626551 1.721885 0.000000 0.000000 0.000000 5.378490 -25.026354 -90.545914 -29.188634 -17.840714 117.833624 -4.691226 6.305683 -39.930434 -2.169984 9.211592 -26.459340 4.804882 2.550569 30.799896 0.302737 5.010464 2.181222 -4.217593 2.004220 -13.284907 -0.641709 -7.201302 -17.961865 0.690448 -9.473885 0.688680 -0.469291 -4.679210 3.451133 0.000000 0.000000 0.000000 15.808372 27.672057 -61.209762 81.216333 -59.705583 52.400698 46.088367 17.971004 -5.333788 0.000000 0.000000 0.000000 -7.125000 0.000000 0.000000 16.429502 37.177097 3.268427 0.000000 0.000000 0.000000 -53.834998 -55.679098 -24.713122 -9.359105 -15.730765 -1.295928 -26.756890 22.476102 11.050073 0.000000 0.000000 0.000000 7.125000 0.000000 0.000000 0.316333 42.316165 0.020943
-2.581421 10.446101 2.367842 10.851528 26.394356 29.419137 0.000000 0.000000 0.000000 -3.405863 -6.247419 -98.645626 21.548339 19.942112 94.531245 -0.806251 -22.806650 -9.424248 0.059899 1.577939 4.340619 0.000000 0.000000 0.000000 7.138130 -33.201366 -95.171273 -31.672282 -16.354317 126.266555 -5.184321 9.024759 -41.808280 -2.280867 9.428127 -27.143929 6.305437 1.924253 35.323042 0.672968 5.081799 2.950383 -4.803381 1.927568 -14.179179 -0.895804 -7.386518 -17.540978 0.326515 -9.623550 -2.293272 -0.445130 -4.790223 2.313018 0.000000 0.000000 0.000000 16.848596 30.016518 -62.168184 87.126957 -59.968554 57.512187 49.468991 15.154620 -3.589508 0.000000 0.000000 0.000000 -7.125000 0.000000 0.000000 18.814600 34.950329 4.864927 0.000000 0.000000 0.000000 -63.097514 -57.721046 -40.690149 -7.811048 -13.246082 -0.908476 -25.721244 30.702115 11.548493 0.000000 0.000000 0.000000 7.125000 0.000000 0.000000 1.303329 42.755056 0.072195
-2.721798 9.853033 2.325340 11.709181 28.473532 28.536157 0.000000 0.000000 0.000000 -3.467588 -5.453409 -102.463796 23.124052 19.764167 99.168703 -1.330128 -24.932620 -6.921316 0.168822 2.646454 7.295922 0.000000 0.000000 0.000000 10.845809 -43.283687 -101.579430 -33.494382 -14.900344 133.022499 -5.601731 12.703734 -43.377167 -2.361116 9.580969 -27.630033 7.564635 1.154062 39.003115 1.144628 4.996219 3.549651 -4.973410 1.822525 -14.701484 -0.936673 -7.234895 -17.666240 -0.221116 -9.382756 -4.513869 -0.530104 -4.687926 1.543851 0.000000 0.000000 0.000000 15.955898 32.052934 -61.257661 91.628517 -59.989865 61.410290 51.368662 9.459432 -0.724154 0.000000 0.000000 0.000000 -7.125000 0.000000 0.000000 19.470066 30.752871 7.147599 0.000000 0.000000 0.000000 -71.437345 -58.979858 -55.313002 -6.732772 -11.478627 -0.677518 -25.109909 38.542996 11.513631 0.000000 0.000000 0.000000 7.125000 0.000000 0.000000 1.851776 42.650537 0.107355
-2.826152 9.327918 2.298291 12.028758 30.109209 29.150249 0.000000 0.000000 0.000000 -2.670654 -4.890735 -107.720307 24.445296 19.519340 103.098080 -1.698817 -25.907961 -4.469629 0.288850 3.456093 9.551179 0.000000 0.000000 0.000000 20.302666 -52.690377 -113.830801 -34.899951 -13.495215 138.747559 -6.007163 15.635720 -45.022220 -2.379779 9.615944 -27.741876 8.604809 0.761888 39.624120 1.714615 5.098592 3.947848 -4.920786 1.858464 -14.392652 -0.947849 -7.108647 -17.834752 -0.893626 -9.199842 -5.520460 -0.702491 -4.610834 1.198183 0.000000 0.000000 0.000000 14.707212 33.559525 -59.620018 93.552478 -59.952192 63.076002 52.979537 1.919041 3.808177 0.000000 0.000000 0.000000 -7.125000 0.000000 0.000000 19.256285 23.678968 10.484540 0.000000 0.000000 0.000000 -77.277925 -59.849736 -69.728383 -5.789554 -9.910659 -0.502409 -24.550416 49.006257 11.351515 0.000000 0.000000 0.000000 7.125000 0.000000 0.000000 2.336171 42.414200 0.149109
-2.890583 8.946307 2.294584 12.537906 30.764198 29.604323 0.000000 0.000000 0.000000 -2.332032 -4.404147 -111.254572 25.400802 19.285808 105.973555 -1.847138 -26.146880 -3.141950 0.350583 3.804049 10.526063 0.000000 0.000000 0.000000 32.555283 -59.193800 -128.230116 -35.804676 -12.415780 142.780764 -6.396052 17.052821 -46.590552 -2.252586 9.373420 -26.970693 8.952958 0.733218 39.892856 2.007033 5.273942 4.312040 -4.841306 1.960066 -14.028748 -1.011849 -7.103684 -17.693695 -1.276909 -9.187729 -6.208754 -0.783307 -4.608664 0.927080 0.000000 0.000000 0.000000 14.245450 34.245660 -59.103638 95.520074 -59.884487 64.778656 53.730157 -1.760744 5.507983 0.000000 0.000000 0.000000 -7.125000 0.000000 0.000000 19.248923 20.895405 11.789037 0.000000 0.000000 0.000000 -79.788177 -60.247355 -77.175660 -5.523531 -9.465137 -0.457639 -23.164495 53.677507 12.641251 0.000000 0.000000 0.000000 7.125000 0.000000 0.000000 3.769539 43.657363 0.125062
-2.905698 8.720372 2.297301 13.005825 31.368838 29.656612 0.000000 0.000000 0.000000 -1.874126 -4.714781 -112.862337 25.962664 19.125281 107.681597 -1.844890 -26.015050 -2.902123 0.359197 3.850187 10.655563 0.000000 0.000000 0.000000 43.932784 -63.014411 -140.537716 -36.291857 -11.761520 145.106678 -6.780557 17.509091 -48.080618 -2.073965 9.018528 -25.853176 9.742665 0.403606 40.246738 2.079107 5.255762 4.452514 -5.154859 1.931178 -13.914284 -1.010565 -7.114097 -17.267102 -1.825152 -9.223184 -6.766588 -0.920106 -4.632691 0.644105 0.000000 0.000000 0.000000 14.435949 34.588003 -59.096282 96.704385 -59.829490 65.802860 54.364078 -5.092823 7.531848 0.000000 0.000000 0.000000 -7.125000 0.000000 0.000000 19.056477 17.566989 13.167865 0.000000 0.000000 0.000000 -80.693851 -60.558211 -86.476971 -5.101955 -8.756423 -0.390893 -22.098032 60.464589 12.861631 0.000000 0.000000 0.000000 7.125000 0.000000 0.000000 4.775075 43.771721 0.145091
-2.883744 8.671410 2.295737 13.425539 31.862306 29.663563 0.000000 0.000000 0.000000 -1.661677 -5.578333 -112.956976 26.086267 19.087675 108.059163 -1.776764 -25.694768 -3.121230 0.334781 3.718216 10.285390 0.000000 0.000000 0.000000 46.983364 -64.217569 -143.983410 -36.391441 -11.620530 145.597673 -6.852604 17.185109 -48.343331 -1.858201 8.564224 -24.441455 10.367377 0.039232 40.191988 2.138029 5.081057 4.505052 -5.323512 1.841171 -13.796908 -0.755732 -7.023922 -17.125308 -2.324943 -9.159819 -6.866896 -1.104363 -4.615156 0.554519 0.000000 0.000000 0.000000 14.465923 34.352780 -59.272354 96.863064 -59.821235 65.940007 54.324734 -5.190758 7.679660 0.000000 0.000000 0.000000 -7.125000 0.000000 0.000000 18.988532 17.345052 13.213873 0.000000 0.000000 0.000000 -81.315287 -60.663623 -88.143514 -4.893653 -8.404873 -0.359809 -21.863496 60.791432 12.891422 0.000000 0.000000 0.000000 7.125000 0.000000 0.000000 4.993311 43.776741 0.151174
-2.817161 8.830674 2.276961 13.402553 31.637494 30.084586 0.000000 0.000000 0.000000 -1.823737 -6.486383 -112.143495 25.755894 19.186393 107.051420 -1.561446 -24.788989 -4.091530 0.313480 3.599371 9.952188 0.000000 0.000000 0.000000 36.386850 -61.501881 -133.402140 -36.035844 -12.112338 143.869088 -6.562486 16.225602 -47.211666 -1.813701 8.466741 -24.140897 10.540139 -0.070812 39.393264 2.100019 4.915264 4.335587 -5.369132 1.758739 -13.718278 -0.789330 -6.902116 -17.045753 -2.368638 -8.995123 -6.974164 -1.097066 -4.530396 0.508117 0.000000 0.000000 0.000000 14.312201 33.945676 -58.944018 95.997771 -59.863584 65.191844 53.370972 -1.935303 6.384576 0.000000 0.000000 0.000000 -7.125000 0.000000 0.000000 18.756866 19.600691 12.034231 0.000000 0.000000 0.000000 -81.577164 -60.796233 -84.108070 -5.254750 -9.013582 -0.414520 -21.819597 55.070686 12.485681 0.000000 0.000000 0.000000 7.125000 0.000000 0.000000 4.963828 43.340453 0.203811
-2.692303 9.250148 2.237163 12.710025 29.940982 31.159297 0.000000 0.000000 0.000000 -2.046065 -7.077744 -110.163424 24.789303 19.440734 104.129639 -1.193230 -23.420186 -6.193484 0.225093 3.053366 8.427394 0.000000 0.000000 0.000000 18.041764 -51.095371 -114.886765 -35.013014 -13.368376 139.235052 -5.914116 13.999014 -44.637108 -2.024803 8.917584 -25.537817 9.931523 0.299845 37.889108 1.849777 4.904005 3.804381 -5.317785 1.741563 -13.837724 -0.443843 -6.626496 -16.632488 -2.500071 -8.713220 -7.372177 -1.150194 -4.393358 0.295388 0.000000 0.000000 0.000000 14.468755 33.650691 -58.671083 95.604377 -59.880995 64.851631 51.396752 4.435513 3.366680 0.000000 0.000000 0.000000 -7.125000 0.000000 0.000000 18.291800 24.559425 9.506003 0.000000 0.000000 0.000000 -80.001913 -61.099460 -70.446864 -6.048271 -10.342509 -0.548054 -22.835043 42.659777 11.311471 0.000000 0.000000 0.000000 7.125000 0.000000 0.000000 3.869139 42.193296 0.268368
-2.504388 9.961039 2.197744 11.936378 27.048685 31.490755 0.000000 0.000000 0.000000 -2.640585 -8.229346 -104.734056 22.986960 19.784315 98.763675 -0.537508 -20.687050 -9.792661 0.057373 1.540742 4.238086 0.000000 0.000000 0.000000 5.748095 -35.900896 -100.869262 -33.037260 -15.298981 131.269297 -5.200682 9.039835 -41.878073 -1.980628 8.825537 -25.251207 8.637790 0.746941 36.869182 1.413392 4.747643 3.524536 -5.052943 1.709981 -13.886807 -0.646990 -6.274188 -16.761664 -2.097321 -8.198180 -7.215706 -0.975419 -4.125231 0.400575 0.000000 0.000000 0.000000 15.377152 31.971654 -59.317374 94.991792 -59.905642 64.321667 49.225042 13.192746 -0.767908 0.000000 0.000000 0.000000 -7.125000 0.000000 0.000000 17.838633 30.835726 6.456334 0.000000 0.000000 0.000000 -74.037129 -59.872442 -42.847831 -9.302210 -15.639577 -1.281444 -20.559758 16.135008 9.960135 0.000000 0.000000 0.000000 7.125000 0.000000 0.000000 5.684670 40.538666 0.628818
-2.278125 10.858935 2.187713 10.719794 23.273424 30.595591 0.000000 0.000000 0.000000 -3.432705 -9.234580 -96.438763 20.469057 19.994172 91.371464 0.215938 -16.495420 -13.658441 0.008076 -0.572013 -1.571794 0.000000 0.000000 0.000000 0.850467 -23.399042 -91.197244 -30.005014 -17.405732 120.530148 -4.630070 4.660150 -39.909452 -1.852384 8.551537 -24.402285 7.288704 1.330022 36.012016 0.866281 4.764941 3.310161 -4.951304 1.760401 -13.905643 -0.408719 -6.024675 -16.004248 -1.858475 -7.932140 -7.264646 -0.895666 -3.993180 0.267283 0.000000 0.000000 0.000000 16.654249 28.559166 -60.683830 93.683004 -59.948710 63.189009 44.158023 15.601842 -3.374927 0.000000 0.000000 0.000000 -7.125000 0.000000 0.000000 14.405600 34.386837 3.857335 0.000000 0.000000 0.000000 -64.598406 -56.040661 -18.216442 -15.038555 -24.197267 -3.243192 -14.420067 -4.748310 8.459453 0.000000 0.000000 0.000000 7.125000 0.000000 0.000000 10.718316 38.501422 1.739761
